<?xml version="1.0" encoding="UTF-8"?>
<svg xmlns="http://www.w3.org/2000/svg" xmlns:xlink="http://www.w3.org/1999/xlink" width="53px" height="60px" viewBox="0 0 53 60" version="1.1">
<g id="surface1">
<path style=" stroke:none;fill-rule:nonzero;fill:rgb(100%,100%,100%);fill-opacity:1;" d="M 16.683594 27.582031 L 19.636719 30.515625 C 19.839844 30.714844 20.171875 30.714844 20.375 30.515625 L 27.292969 23.640625 C 31.363281 19.597656 37.992188 19.480469 42.089844 23.496094 C 44.074219 25.433594 45.195312 28.078125 45.207031 30.84375 C 45.214844 33.605469 44.113281 36.261719 42.144531 38.214844 L 35.132812 45.179688 C 34.929688 45.382812 34.929688 45.710938 35.132812 45.914062 L 38.457031 49.210938 L 49.160156 59.835938 C 49.363281 60.039062 49.691406 60.039062 49.898438 59.835938 L 52.851562 56.902344 C 52.949219 56.804688 53.003906 56.675781 53.003906 56.535156 C 53.003906 56.398438 52.949219 56.265625 52.851562 56.167969 L 42.515625 45.90625 C 42.3125 45.703125 42.3125 45.375 42.515625 45.171875 L 45.734375 41.980469 C 51.859375 35.890625 51.96875 25.980469 45.84375 19.890625 C 39.730469 13.8125 29.8125 13.8125 23.699219 19.890625 L 16.6875 26.851562 C 16.484375 27.054688 16.484375 27.378906 16.683594 27.582031 Z M 16.683594 27.582031 "/>
<path style=" stroke:none;fill-rule:nonzero;fill:rgb(100%,100%,100%);fill-opacity:1;" d="M 0.152344 3.832031 L 10.484375 14.09375 C 10.582031 14.191406 10.636719 14.324219 10.636719 14.460938 C 10.636719 14.597656 10.582031 14.730469 10.484375 14.828125 L 7.269531 18.019531 C 1.140625 24.105469 1.03125 34.015625 7.15625 40.109375 C 13.269531 46.1875 23.1875 46.191406 29.304688 40.117188 L 36.320312 33.152344 C 36.523438 32.949219 36.523438 32.621094 36.320312 32.417969 L 33.367188 29.488281 C 33.164062 29.285156 32.835938 29.285156 32.628906 29.488281 L 25.707031 36.359375 C 21.636719 40.402344 15.007812 40.519531 10.910156 36.507812 C 8.925781 34.566406 7.804688 31.921875 7.792969 29.15625 C 7.785156 26.394531 8.886719 23.738281 10.855469 21.785156 L 17.867188 14.824219 C 17.964844 14.726562 18.019531 14.59375 18.019531 14.457031 C 18.019531 14.316406 17.964844 14.1875 17.867188 14.089844 L 14.542969 10.796875 L 3.84375 0.164062 C 3.640625 -0.0390625 3.308594 -0.0390625 3.105469 0.164062 L 0.152344 3.097656 C -0.0507812 3.300781 -0.0507812 3.628906 0.152344 3.832031 Z M 0.152344 3.832031 "/>
</g>
</svg>
