<?xml version="1.0" encoding="UTF-8"?>
<svg width="1015px" height="612px" viewBox="0 0 1015 612" version="1.1" xmlns="http://www.w3.org/2000/svg" xmlns:xlink="http://www.w3.org/1999/xlink">
    <title>undraw_message_sent_1030</title>
    <g id="Page-1" stroke="none" stroke-width="1" fill="none" fill-rule="evenodd">
        <g id="undraw_message_sent_1030">
            <path d="M690.46903,348.39394 L699.15903,346.89145 C699.99267,346.74536 700.82028,346.56745 701.65303,346.41637 C673.323273,328.831267 660.954495,293.967151 671.86767,262.459793 C682.780846,230.952435 714.064302,211.208104 747.20163,214.9133 L735.81152,242.01651 L762.79715,218.45351 C762.860099,218.469113 762.921702,218.489718 762.98137,218.51513 C780.828002,224.80067 795.446616,237.918554 803.62107,254.982803 C811.795524,272.047051 812.856158,291.659746 806.56963,309.50603 C806.11819,310.79103 805.58078,312.01798 805.06508,313.25994 C812.68338,309.43212 819.99154,304.97612 825.95131,299.27052 C838.01691,287.70869 844.62775,271.75394 852.01531,252.09731 C866.65137,213.14477 880.74263,173.6284 894.27159,134.02589 C863.446618,117.345491 849.313595,80.7371189 860.93326,47.67055 C861.65816,45.6112 862.49791,43.62817 863.388,41.6806 C863.61049,41.1932 863.835,40.7089 864.06739,40.22847 C864.97196,38.36129 865.92692,36.53187 866.97491,34.77614 C867.14621,34.48831 867.33813,34.21897 867.51308,33.93426 C868.425213,32.45392 869.387353,31.0173933 870.3995,29.62468 C870.77629,29.10179 871.15183,28.58035 871.5415,28.06988 C872.6883,26.57029 873.87592,25.11111 875.12826,23.71806 C875.54674,23.25195 875.99073,22.81645 876.42036,22.36238 C877.382487,21.3472067 878.370987,20.3626767 879.38586,19.40879 C879.92096,18.90661 880.45034,18.40079 880.99948,17.91641 C881.14042,17.79214 881.27191,17.65651 881.41375,17.53326 C881.42085,17.54235 881.42637,17.5521 881.43319,17.56108 C907.362587,-5.03500403 945.728069,-5.89686936 972.64602,15.51202 L957.82463,50.7821 L984.50343,27.49931 C1003.66657,51.9139819 1004.73484,85.9509882 987.14043,111.51931 C987.16502,111.52798 987.19043,111.53468 987.21502,111.54331 C986.92373,111.97143 986.59291,112.36325 986.29328,112.78373 C985.73072,113.572903 985.15478,114.34804 984.56546,115.10914 C983.80746,116.08514 983.02031,117.02842 982.21676,117.95882 C981.61,118.6611 981.01199,119.36921 980.38044,120.04475 C979.45669,121.03298 978.48885,121.96869 977.51463,122.89919 C976.94576,123.44194 976.40201,124.01219 975.81702,124.53501 C974.283473,125.90491 972.696943,127.204727 971.05743,128.43446 C970.48234,128.86517 969.87553,129.24511 969.28854,129.6576 C968.13741,130.46733 966.98031,131.26516 965.7853,132.00414 C965.04373,132.46248 964.28249,132.88146 963.5253,133.31221 C962.42944,133.93645 961.3258,134.54121 960.19906,135.10616 C959.40022,135.50662 958.59556,135.88675 957.7824,136.25722 C956.62552,136.78447 955.45408,137.27345 954.27032,137.73881 C953.47595,138.05081 952.68554,138.36681 951.88011,138.65052 C950.55143,139.11852 949.20323,139.52509 947.84702,139.9143 C947.16249,140.11105 946.48902,140.33614 945.79812,140.5123 C943.76366,141.03118 941.70656,141.47289 939.6253,141.8113 C939.23392,141.87521 938.83548,141.8993 938.44261,141.95641 C936.71746,142.20746 934.98321,142.41004 933.23515,142.5338 C932.48374,142.58672 931.72782,142.59434 930.9732,142.62373 C929.56029,142.67873 928.14594,142.70673 926.72387,142.67631 C925.89449,142.65871 925.06556,142.61581 924.23401,142.5689 C922.849343,142.49056 921.463403,142.369973 920.07619,142.20714 C919.25595,142.11214 918.43807,142.01786 917.6173,141.89359 C916.13084,141.66807 914.64668,141.3732 913.16181,141.05025 C913.06448,141.02909 912.96672,141.01625 912.86922,140.99469 C907.15898,157.70233 901.343017,174.374287 895.42133,191.01056 C910.018413,177.884416 929.382127,171.358293 948.946626,172.971012 C968.511125,174.58373 986.544822,184.192554 998.79548,199.53178 L974.13131,226.80823 L1007.52542,213.47738 C1015.63678,230.486695 1016.66338,250.020528 1010.37964,267.78638 C1008.20242,274.029187 1005.15148,279.931945 1001.31782,285.31859 C984.434742,309.199193 954.682256,320.350598 926.262163,313.449887 C897.84207,306.549176 876.516377,282.995428 872.46451,254.03159 C871.83711,255.7078 871.23093,257.40504 870.60191,259.07959 C864.0826,276.42087 855.97218,298.00201 839.68416,313.60495 C828.64345,324.18066 815.05945,330.89026 802.0267,336.5629 C793.54008,340.25632 784.940507,343.670987 776.22798,346.8069 C766.542103,352.679711 755.599453,356.167123 744.30156,356.98182 C730.55444,360.80061 716.63394,363.98847 702.5831,366.44976 L693.82194,367.96002 C685.94839,369.30881 677.87494,370.69749 669.86227,372.29747 C671.01599,372.63977 672.1712,372.96634 673.31889,373.37027 C702.614496,383.68111 721.877862,411.754988 720.95825,442.79851 L666.03302,459.65727 L715.73379,467.54983 C706.492222,490.261834 686.238927,506.63984 662.095956,510.924538 C637.952984,515.209237 613.300775,506.800696 596.80825,488.65577 C597.312723,490.34605 597.819253,492.033683 598.32784,493.71867 C599.33672,497.06718 600.33759,500.39675 601.299,503.69467 C614.37717,548.6328 608.74878,583.98226 585.44779,603.22698 L572.80411,587.92188 C595.48211,569.18815 588.44622,530.58625 582.23778,509.23978 C581.29408,506.00138 580.30869,502.73039 579.31753,499.44137 C570.79953,471.14358 561.14334,439.06824 573.64966,409.59364 C592.49787,365.1693 646.8202,355.86769 690.46903,348.39394 L690.46903,348.39394 Z" id="Path" fill="#F2F2F2" fill-rule="nonzero"></path>
            <path d="M674.37107,608.99156 L289.53731,608.99156 C263.257878,608.99156 241.95419,587.687872 241.95419,561.40844 L241.95419,385.09669 C241.95419,379.922289 244.081168,374.975382 247.83651,371.41563 L451.76033,178.11282 C468.690763,162.06419 495.217627,162.06419 512.14806,178.11282 L706.57863,362.41678 C716.394584,371.721494 721.95421,384.652044 721.95421,398.17723 L721.95421,561.40844 C721.95421,574.028272 716.941,586.131227 708.01743,595.054794 C699.093859,603.97836 686.990902,608.99156 674.37107,608.99156 L674.37107,608.99156 Z" id="Path" fill="#3F3D56" fill-rule="nonzero"></path>
            <path d="M241.95419,387.99156 L717.95419,387.99156 L717.95419,580.25928 C717.95419,596.12768 705.09031,608.99156 689.22191,608.99156 L270.68647,608.99156 C254.81807,608.99156 241.95419,596.12768 241.95419,580.25928 L241.95419,387.99156 Z" id="Path" fill="#000000" fill-rule="nonzero" opacity="0.1"></path>
            <rect id="Rectangle" fill="#4B59F7" fill-rule="nonzero" x="304.45419" y="236.49156" width="354" height="354" rx="26.1811"></rect>
            <polygon id="Path" fill="#000000" fill-rule="nonzero" opacity="0.1" points="658.454 395.942 658.454 590.492 304.454 590.492 304.454 395.942 481.454 481.492"></polygon>
            <path d="M481.45419,492.49156 L254.66039,382.87456 C251.808816,381.496302 248.448855,381.681388 245.76592,383.36452 C243.082986,385.047651 241.45419,387.992244 241.45419,391.15943 L241.45419,579.75927 C241.45419,587.379546 244.481328,594.687717 249.869676,600.076066 C255.258024,605.464416 262.566194,608.49156 270.18647,608.49156 L692.72191,608.49156 C700.342186,608.49156 707.650356,605.464416 713.038704,600.076066 C718.427052,594.687717 721.45419,587.379546 721.45419,579.75927 L721.45419,394.39027 C721.45419,390.525458 719.466638,386.932266 716.192743,384.878396 C712.918848,382.824526 708.818798,382.598673 705.33912,384.28052 L481.45419,492.49156 Z" id="Path" fill="#3F3D56" fill-rule="nonzero"></path>
            <polygon id="Path" fill="#F2F2F2" fill-rule="nonzero" points="334.95419 268.99156 433.95419 268.99156 433.95419 282.99156 334.95419 282.99156"></polygon>
            <polygon id="Path" fill="#F2F2F2" fill-rule="nonzero" points="326.95419 319.99156 620.95419 319.99156 620.95419 327.99156 326.95419 327.99156"></polygon>
            <polygon id="Path" fill="#F2F2F2" fill-rule="nonzero" points="326.95419 346.99156 620.95419 346.99156 620.95419 354.99156 326.95419 354.99156"></polygon>
            <polygon id="Path" fill="#F2F2F2" fill-rule="nonzero" points="326.95419 373.99156 620.95419 373.99156 620.95419 381.99156 326.95419 381.99156"></polygon>
            <line x1="61.95419" y1="608.49156" x2="885.95419" y2="608.49156" id="Path" stroke="#3F3D56"></line>
            <g id="Group" transform="translate(0.724630, 100.140690)" fill-rule="nonzero">
                <path d="M0.27537,385.2124 C0.27537,444.17267 37.26395,491.88257 82.97472,491.88257" id="Path" fill="#46455B"></path>
                <path d="M82.97472,491.88257 C82.97472,432.25983 124.25182,384.01386 175.26239,384.01386" id="Path" fill="#4B59F7"></path>
                <path d="M30.2389,390.55725 C30.2389,446.56325 53.82582,491.88257 82.97472,491.88257" id="Path" fill="#4B59F7"></path>
                <path d="M82.97472,491.88257 C82.97472,415.69796 130.68462,354.05033 189.64488,354.05033" id="Path" fill="#46455B"></path>
                <path d="M65.57691,492.63461 C65.57691,492.63461 77.30504,492.27339 80.8396,489.75648 C84.37416,487.23957 98.88041,484.23423 99.75725,488.27081 C100.63409,492.30739 117.38245,508.34692 104.14145,508.45372 C90.90045,508.56052 73.37526,506.39123 69.8475,504.24233 C66.31974,502.09343 65.57691,492.63461 65.57691,492.63461 L65.57691,492.63461 Z" id="Path" fill="#A8A8A8"></path>
                <path d="M104.37775,507.04857 C91.13675,507.15541 73.61157,504.9861 70.0838,502.83719 C67.39722,501.20069 66.32665,495.32853 65.96844,492.61934 C65.72037,492.63001 65.57691,492.6346 65.57691,492.6346 C65.57691,492.6346 66.31974,502.09342 69.84751,504.24232 C73.37528,506.39122 90.90051,508.56054 104.14145,508.4537 C107.96361,508.42288 109.28384,507.06301 109.21135,505.04893 C108.68037,506.26579 107.22263,507.02564 104.37775,507.04857 Z" id="Path" fill="#000000" opacity="0.2"></path>
                <path d="M719.98846,62.62988 C719.38746,67.98442 715.30334,72.2977 713.79008,77.46899 C711.5124,85.25249 715.45085,93.60488 720.83829,99.66674 C729.618547,109.442382 741.946948,115.296065 755.07193,115.92131 C756.980834,116.089117 758.904101,115.879505 760.73204,115.30443 C762.364092,114.647711 763.833561,113.643473 765.03832,112.36151 C769.09557,108.28764 771.2735,102.64299 772.14146,96.95929 C773.00942,91.27559 772.67211,85.48514 772.33271,79.74558 C772.334374,78.5591314 772.118821,77.3824016 771.69671,76.27358 C771.143441,75.2173184 770.383476,74.2830602 769.46198,73.52633 C766.540943,70.846724 763.323475,68.5094341 759.8721,66.55988 C758.312067,65.8608232 756.936271,64.8080618 755.85372,63.48501 C755.201473,62.3515865 754.779352,61.1005691 754.61156,59.80368 L753.55211,54.4048 C753.36312,52.8489721 752.831767,51.3543422 751.99625,50.02836 C750.12465,47.5036 746.54455,47.16001 743.40415,47.03682 L731.899,46.5855 C728.32024,46.44511 723.60478,45.41886 720.11112,46.12169 C716.84873,46.778 717.9324,49.78431 718.52501,52.52169 C719.384377,55.8267522 719.875183,59.2167998 719.98846,62.62988 L719.98846,62.62988 Z" id="Path" fill="#A0616A"></path>
                <path d="M719.98846,62.62988 C719.38746,67.98442 715.30334,72.2977 713.79008,77.46899 C711.5124,85.25249 715.45085,93.60488 720.83829,99.66674 C729.618547,109.442382 741.946948,115.296065 755.07193,115.92131 C756.980834,116.089117 758.904101,115.879505 760.73204,115.30443 C762.364092,114.647711 763.833561,113.643473 765.03832,112.36151 C769.09557,108.28764 771.2735,102.64299 772.14146,96.95929 C773.00942,91.27559 772.67211,85.48514 772.33271,79.74558 C772.334374,78.5591314 772.118821,77.3824016 771.69671,76.27358 C771.143441,75.2173184 770.383476,74.2830602 769.46198,73.52633 C766.540943,70.846724 763.323475,68.5094341 759.8721,66.55988 C758.312067,65.8608232 756.936271,64.8080618 755.85372,63.48501 C755.201473,62.3515865 754.779352,61.1005691 754.61156,59.80368 L753.55211,54.4048 C753.36312,52.8489721 752.831767,51.3543422 751.99625,50.02836 C750.12465,47.5036 746.54455,47.16001 743.40415,47.03682 L731.899,46.5855 C728.32024,46.44511 723.60478,45.41886 720.11112,46.12169 C716.84873,46.778 717.9324,49.78431 718.52501,52.52169 C719.384377,55.8267522 719.875183,59.2167998 719.98846,62.62988 L719.98846,62.62988 Z" id="Path" fill="#000000" opacity="0.1"></path>
                <path d="M793.17655,303.64069 C791.54655,321.512897 789.916567,339.38234 788.2866,357.24902 C787.0106,371.3097 785.7099,385.42802 783.20732,399.30755 C782.3429,404.09047 781.33032,408.84873 780.12842,413.56579 C776.78614,426.66326 771.93742,439.46438 770.37324,452.8912 C770.32385,453.27809 770.2827,453.6732 770.24155,454.06841 C770.066424,457.037435 769.504625,459.970916 768.57038,462.79456 C767.78831,464.84438 766.58638,466.71311 765.73849,468.73826 C764.05089,472.78851 763.8286,477.26685 763.6228,481.65459 C757.686382,478.316129 751.187858,476.095088 744.44993,475.10176 C741.19819,474.61604 737.57604,474.2703 735.36156,471.84176 C732.90832,469.15804 733.18,465.05016 733.59156,461.44444 C734.884033,450.24862 736.173753,439.058287 737.46072,427.87344 C737.880725,423.061352 738.698503,418.292309 739.90567,413.6152 C740.35025,412.05929 740.88531,410.52811 741.42867,408.99693 C742.17778,406.88948 742.93513,404.78202 743.50316,402.61693 C744.321714,399.118709 744.893891,395.567381 745.21548,391.98909 C746.54085,380.72739 748.13791,369.49037 749.5374,358.23691 L749.61151,357.64421 C751.71072,340.58699 753.30778,323.44747 752.84678,306.26679 C752.7809,303.72306 752.67388,301.17927 752.50923,298.6273 C752.27875,294.93103 751.94123,292.97176 755.00362,290.6585 C758.38706,288.1065 762.84062,286.32009 766.70984,284.64893 C768.79262,283.7434 791.72762,275.60171 792.26273,277.38814 C793.338643,281.198582 793.903374,285.135113 793.94209,289.09435 C793.958447,293.953614 793.702867,298.809986 793.17655,303.64069 L793.17655,303.64069 Z" id="Path" fill="#605D82"></path>
                <path d="M783.20732,399.30755 C782.3429,404.09047 781.33032,408.84873 780.12842,413.56579 C776.78614,426.66326 771.93742,439.46438 770.37324,452.8912 C770.32385,453.27809 770.2827,453.6732 770.24155,454.06841 C760.01707,439.46441 751.40618,423.7573 741.42872,408.99691 C742.17783,406.88946 742.93518,404.782 743.50321,402.61691 C744.321764,399.118689 744.893941,395.567361 745.21553,391.98907 C746.5409,380.72737 748.13796,369.49035 749.53745,358.23689 L749.61156,357.64419 C750.197154,360.033271 751.03323,362.353884 752.1059,364.56748 C758.80696,378.18364 774.72808,385.06578 782.51579,398.09737 C782.75451,398.500797 782.98502,398.90419 783.20732,399.30755 Z" id="Path" fill="#000000" opacity="0.1"></path>
                <path d="M700.24243,279.578 C700.58013,290.49882 702.32831,301.3211 704.07287,312.107 L707.67232,334.36069 C709.64232,346.5402 711.69332,358.96792 717.45704,369.87669 C721.76863,378.03699 727.98056,385.00044 733.60021,392.32163 C747.41559,410.32008 757.7943,430.70854 770.89431,449.23416 C774.70202,454.61891 780.14473,460.44229 786.64319,459.31793 C790.90819,458.57999 794.00592,455.02906 797.35845,452.29125 C801.31097,449.06346 806.07468,446.7016 809.18458,442.65567 C812.29448,438.60974 812.9038,431.88456 808.69049,429.00549 C807.165948,428.160977 805.547374,427.498695 803.86812,427.03229 C797.33662,424.54829 793.10905,418.17005 790.41912,411.72062 C787.72919,405.27119 786.09943,398.33637 782.51502,392.3378 C774.72811,379.30626 758.80471,372.42442 752.10202,358.80344 C748.34794,351.17452 747.99015,342.38152 747.7032,333.8838 L746.9717,312.22171 C746.8917,309.85284 746.82912,307.38914 747.79209,305.22335 C750.35594,299.4571 758.09704,298.92002 764.36509,298.189 C771.479131,297.355246 778.370738,295.180924 784.67518,291.78111 C788.28541,289.83158 791.81248,287.34631 793.74385,283.72634 C795.50591,280.4237 795.74908,276.55002 795.95571,272.81243 L798.12602,233.55462 C798.31274,230.17711 798.48302,226.68486 797.29262,223.51862 C794.30355,215.56814 784.26408,212.97015 775.77875,213.34948 C759.98875,214.05536 745.41212,220.84771 730.52413,225.43465 C726.836534,226.597808 723.092646,227.574331 719.30672,228.3605 C715.9654,229.03103 711.92159,228.75281 708.73484,229.82716 C703.06756,231.73779 703.21146,244.13154 702.40784,249.27263 C700.748089,259.285445 700.023164,269.430924 700.24243,279.578 L700.24243,279.578 Z" id="Path" fill="#605D82"></path>
                <path d="M784.49921,460.9639 C785.89158,462.36809 786.34671,464.42525 786.70941,466.36919 C788.720635,477.152137 789.766774,488.092886 789.83541,499.06158 C789.742358,500.084999 789.946667,501.113526 790.42381,502.02368 C790.815918,502.566525 791.347235,502.993512 791.96174,503.25962 C795.98598,505.17762 800.6569,502.50462 804.01021,499.56718 C810.22649,494.12176 815.48649,486.81271 815.83957,478.55618 C815.774856,476.42954 815.849348,474.300944 816.06257,472.18403 C816.60857,469.07565 818.4237,466.36733 820.02306,463.64665 C822.744882,459.015312 824.940235,454.094113 826.56819,448.9748 C827.17956,447.05148 827.58619,444.62974 826.0791,443.28748 C825.544748,442.868779 824.937271,442.552976 824.28758,442.35614 L806.109,435.60643 C804.53371,435.02153 800.61384,445.09073 799.99169,446.19153 C798.46981,448.88421 796.95657,450.41283 793.90337,451.03437 C790.78677,451.66881 787.07675,450.75845 784.16871,452.31337 C779.24945,454.94363 781.71389,458.15491 784.49921,460.9639 L784.49921,460.9639 Z" id="Path" fill="#535070"></path>
                <path d="M756.44929,467.17769 C756.111185,466.505534 755.640501,465.908784 755.0656,465.4234 C754.224026,464.889637 753.267156,464.564558 752.2746,464.47521 C748.81382,463.88759 744.71188,463.50067 742.32327,466.07299 C740.08387,468.48464 740.46886,472.41336 738.59664,475.11999 C738.00395,475.97683 737.2009,476.68299 736.68703,477.58929 C736.049218,478.974692 735.761537,480.495576 735.84928,482.01822 C735.752714,486.21347 735.65617,490.41584 735.94597,494.60222 C736.18882,498.11022 736.78014,501.78622 738.97385,504.53449 C742.4949,508.94559 748.84537,509.57988 754.48218,509.86618 L759.04743,510.09805 C760.304741,510.250864 761.580184,510.133933 762.78875,509.75505 C764.300193,509.056407 765.464345,507.775539 766.01584,506.20442 C768.39221,500.29794 764.62884,493.93435 762.31068,488.00478 C759.64623,481.18925 760.12467,473.6215 756.44929,467.17769 L756.44929,467.17769 Z" id="Path" fill="#535070"></path>
                <path d="M718.66579,32.45928 C718.60986,31.8605034 718.697858,31.2570309 718.92245,30.69916 C719.59111,29.51684 721.33711,29.83862 722.6542,30.17068 C727.95096,31.50607 733.53205,30.29728 738.98563,30.60925 C744.43921,30.92122 750.58228,33.64759 751.67881,38.99889 C755.637237,36.1926246 759.049496,32.6865819 761.74743,28.65354 C763.26098,26.38854 764.58025,23.79415 764.3742,21.07778 C764.07701,17.15978 760.78977,14.22968 757.74601,11.7449 L748.67277,4.3379 C747.48203,3.24346923 746.106562,2.36897751 744.61031,1.75508 C742.5151,1.03908 740.23025,1.38022 738.01608,1.38164 C731.41137,1.38587 724.36947,-1.61993 718.49538,1.39957 C716.04164,2.66088 714.19477,4.82233 712.41438,6.92989 L704.31638,16.51579 C703.706803,17.1267157 703.261527,17.8818025 703.02192,18.7109 C702.79152,19.88099 703.39242,21.03575 703.60211,22.20972 C703.98462,24.35121 703.06227,26.63672 703.77138,28.69327 C704.94861,32.1074 709.09396,32.59069 711.62824,34.54797 C712.57278,35.27746 714.05311,37.74971 715.17849,37.71952 C717.209,37.66505 718.613,34.03684 718.66579,32.45928 L718.66579,32.45928 Z" id="Path" fill="#3F3D56"></path>
            </g>
            <circle id="Oval" fill="#A0616A" fill-rule="nonzero" cx="733.13079" cy="134.92476" r="25.93155"></circle>
            <path d="M739.20442,191.67643 C737.398909,186.504832 732.450438,183.099455 726.9751,183.26061 C726.211826,183.402687 725.423239,183.302977 724.71935,182.97539 C724.321277,182.669534 724.003183,182.271836 723.79226,181.81629 C722.215463,178.980787 720.947857,175.984089 720.01126,172.87778 C719.59757,171.50522 719.03185,169.88708 717.64343,169.53023 C716.47202,169.376931 715.311482,169.881756 714.62499,170.84323 C713.965574,171.792992 713.244911,172.698731 712.46759,173.55468 C709.20619,176.4708 703.42489,173.81292 699.96328,176.48832 C699.39785,176.92532 698.93121,177.48513 698.33734,177.88264 C697.742943,178.240443 697.102317,178.515102 696.43334,178.69895 C689.748764,180.881218 683.195809,183.447745 676.80721,186.38571 C679.10978,200.25252 681.46921,214.36109 686.8665,227.3403 C689.43499,233.51696 692.34573,239.5663 694.4025,245.93165 C698.95972,260.03531 699.16176,275.12555 699.21291,289.94711 C699.24791,300.09117 699.19749,310.4518 695.91553,320.05034 C695.032635,322.171566 694.410306,324.392056 694.06218,326.66316 C693.86397,328.95041 694.52975,331.47232 696.38298,332.82743 C697.457454,333.530153 698.686339,333.961782 699.96425,334.0853 C705.65101,334.91973 711.38405,333.4063 716.9835,332.10951 C731.99172,328.63379 747.2983,326.64492 762.5755,324.66128 L788.17535,321.33728 C790.010335,321.212644 791.806245,320.748493 793.47183,319.96841 C798.15631,317.40356 798.60103,310.35709 795.69195,305.87824 C794.29731,303.73103 792.3296,301.9695 791.15779,299.69301 C789.98598,297.41652 789.88619,294.23313 791.90349,292.6564 C796.00696,289.44911 794.78295,283.49852 794.97866,278.29401 C795.52588,263.74153 795.451847,249.183367 794.75656,234.61952 C794.551034,231.604749 794.502786,228.581314 794.61201,225.56152 C795.066948,220.444452 796.012407,215.38292 797.43536,210.44667 L805.21409,179.81867 C803.18202,176.60753 799.29119,174.57022 795.60539,173.64524 C791.91959,172.72026 788.08073,172.44803 784.45091,171.32324 C777.01463,169.01897 770.39426,163.17124 762.62825,163.71624 C762.040811,163.726793 761.463073,163.867866 760.93688,164.12924 C759.18536,165.12149 759.46274,167.6456 759.35078,169.65553 C759.10308,174.1024 755.83239,177.81897 752.22047,180.42474 C748.60855,183.03051 744.48347,184.93057 741.16608,187.90229 C739.975566,188.79935 739.254513,190.186621 739.20442,191.67643 L739.20442,191.67643 Z" id="Path" fill="#3F3D56" fill-rule="nonzero"></path>
            <path d="M636.45499,220.728 C634.735375,221.843772 632.908045,222.784014 631.00051,223.53457 C629.132613,224.090226 627.367799,224.94669 625.77551,226.07026 C625.041657,226.704988 624.426453,227.465091 623.9586,228.31511 C622.170662,231.485534 622.249918,235.377778 624.165436,238.47279 C626.080954,241.567803 629.529118,243.375013 633.16419,243.18911 C635.536111,242.923341 637.841481,242.23598 639.97166,241.15942 L658.26163,233.23379 C661.35728,231.89235 664.70123,230.32027 666.16439,227.28026 C666.334862,226.996697 666.398043,226.66142 666.34247,226.33526 C666.194988,225.990358 665.928329,225.710036 665.59122,225.54552 C661.465787,222.8663 657.857951,219.464281 654.9413,215.50315 C654.19091,214.48434 653.27275,212.07873 652.21205,211.4679 C648.34063,209.23841 639.55369,218.71703 636.45499,220.728 L636.45499,220.728 Z" id="Path" fill="#A0616A" fill-rule="nonzero"></path>
            <path d="M831.98244,214.22449 L838.72557,221.9274 C840.1732,223.58107 841.62238,225.23666 842.94196,226.99421 C846.182381,231.459986 848.781922,236.357255 850.66496,241.54355 C852.13071,245.38975 853.34726,249.48662 852.83507,253.57066 C852.495015,255.66435 851.929548,257.715128 851.14853,259.68723 C849.912638,263.480102 848.380588,267.169984 846.56653,270.7228 C845.04073,273.422071 843.317319,276.00476 841.41041,278.44972 C836.189572,285.369263 830.476909,291.903607 824.3168,298.00199 C822.0115,300.28405 821.04472,303.97399 820.04121,307.05869 C818.19021,312.7484 813.78588,317.17988 809.52676,321.38212 C808.158073,322.827424 806.645365,324.129177 805.01218,325.26712 C802.565375,326.842983 799.705966,327.657327 796.79604,327.60703 C795.522188,327.615919 794.260906,327.354827 793.09527,326.84095 C790.18066,325.4569 788.69932,322.08654 788.39569,318.87432 C788.124372,315.9593 788.612878,313.02371 789.8136,310.35365 C793.68304,301.78203 803.6196,298.06765 810.6432,291.81349 C814.76172,288.14616 817.9112,283.53961 821.01743,278.98296 C823.127283,276.137972 824.888713,273.050471 826.26407,269.78645 C827.83263,265.60115 827.22207,260.64645 828.59245,256.39207 C829.17169,254.59376 830.20152,252.97001 830.82436,251.18632 C831.4472,249.40263 831.60401,247.28524 830.51446,245.74175 C829.692517,244.760783 828.644902,243.993818 827.46146,243.50663 C822.97464,241.22936 817.94946,238.29863 817.09073,233.34076 C816.74844,230.591337 817.466861,227.814814 819.09973,225.57646 C820.726695,223.367971 822.627951,221.375382 824.75773,219.64666 C826.72005,217.91147 830.02005,215.95969 831.98244,214.22449 L831.98244,214.22449 Z" id="Path" fill="#A0616A" fill-rule="nonzero"></path>
            <path d="M632.12595,231.48054 C630.93528,229.07535 629.44671,226.62146 627.0441,225.42554 C624.6901,224.403454 622.019785,224.392248 619.65729,225.39454 C617.327532,226.398991 615.146387,227.717924 613.17471,229.31454 L607.36248,233.59904 C606.044673,234.46347 604.878745,235.539693 603.9118,236.78423 C602.994638,238.293848 602.383936,239.969397 602.11459,241.71513 C601.101534,245.69636 600.792275,249.824043 601.20078,253.91178 C602.12315,260.46614 606.07478,266.18823 610.42428,271.17747 C613.14214,274.2951 616.4977,277.44128 620.63155,277.57426 C622.41597,277.63166 624.40049,276.92831 625.14264,275.30453 C625.399634,274.660748 625.5362,273.975239 625.54554,273.28212 C625.99209,265.97138 623.37686,258.8305 620.32717,252.17125 C619.354809,250.427553 618.780222,248.490345 618.64459,246.49847 C618.622723,246.163261 618.70989,245.829972 618.89307,245.54839 C619.156104,245.274618 619.507678,245.102961 619.88532,245.06392 C624.05938,244.23829 631.24901,247.48092 634.17719,242.8456 C636.07547,239.84063 633.47493,234.20554 632.12595,231.48054 L632.12595,231.48054 Z" id="Path" fill="#A0616A" fill-rule="nonzero"></path>
            <path d="M718.03048,124.44029 C717.974547,123.841514 718.062541,123.238042 718.28713,122.68017 C718.95579,121.49785 720.7018,121.81963 722.01889,122.15169 C727.31564,123.48708 732.89673,122.27829 738.35031,122.59026 C743.80389,122.90223 749.94696,125.6286 751.0435,130.9799 C755.001927,128.173635 758.414186,124.667592 761.11212,120.63455 C762.62566,118.36955 763.94493,115.77516 763.73888,113.05879 C763.44169,109.14084 760.15445,106.2107 757.1107,103.72591 L748.03745,96.31891 C746.846713,95.2244781 745.471244,94.3499892 743.97499,93.7361 C741.87978,93.0201 739.59493,93.36123 737.38076,93.36265 C730.77605,93.36689 723.73415,90.36109 717.86007,93.38058 C715.40633,94.64189 713.55946,96.80334 711.77907,98.91091 L703.68107,108.49681 C703.071495,109.107733 702.626219,109.862816 702.38661,110.69191 C702.15621,111.862 702.75711,113.01676 702.96681,114.19074 C703.34932,116.33223 702.42696,118.61774 703.13607,120.67428 C704.31331,124.08841 708.45865,124.5717 710.99294,126.52899 C711.93747,127.25847 713.4178,129.73073 714.54318,129.70053 C716.57363,129.64606 717.97768,126.01785 718.03048,124.44029 L718.03048,124.44029 Z" id="Path" fill="#3F3D56" fill-rule="nonzero"></path>
            <path d="M662.95397,195.50477 C661.907011,196.180016 660.988038,197.035503 660.2397,198.03153 C659.28895,199.46901 659.0957,201.28374 658.27903,202.80139 C656.5314,206.04895 652.44378,207.2043 649.89379,209.86858 C649.48868,210.23491 649.207169,210.717876 649.08806,211.25091 C649.075764,211.973982 649.318254,212.67833 649.77306,213.24059 L662.06976,232.57215 C666.16397,232.93264 670.09176,230.36756 674.18771,230.70806 C675.71705,230.8352 677.28199,231.36343 678.74855,230.9115 C679.798502,230.445949 680.782556,229.844122 681.67532,229.12155 C684.11896,227.57644 687.37356,227.39641 689.42371,225.35788 C691.39123,223.4015 691.64227,220.34059 691.61881,217.56605 C691.651684,215.156605 691.406394,212.751415 690.88781,210.39821 C689.07743,202.97801 683.40241,197.28373 679.84472,190.71081 C678.11272,187.51081 677.17025,185.63752 673.50429,187.83472 C669.81931,190.04328 666.42196,192.96869 662.95397,195.50477 L662.95397,195.50477 Z" id="Path" fill="#3F3D56" fill-rule="nonzero"></path>
            <path d="M812.29541,185.72883 C814.606324,187.229456 816.689668,189.054293 818.4816,191.14742 C820.3549,193.56288 821.41589,196.51901 823.21538,198.98995 C824.95961,201.38501 827.33393,203.23995 829.31238,205.44541 C832.31282,208.79012 834.34514,212.87064 836.34087,216.89641 C831.466297,223.253832 826.151159,229.260981 820.4347,234.8735 C819.798425,235.623281 818.960063,236.174394 818.01945,236.46121 C816.719892,236.599195 815.437709,236.076468 814.60505,235.06921 C813.71945,234.14008 813.09177,232.99463 812.24513,232.02986 C810.246891,229.968501 807.58383,228.680518 804.72726,228.39386 C801.896065,228.120204 799.047097,228.080971 796.20944,228.27656 C795.586418,228.345963 794.956391,228.240083 794.39028,227.97084 C793.969365,227.680372 793.62808,227.288911 793.3977,226.83233 C790.06841,221.1671 791.13928,214.05425 792.31387,207.58901 L795.00913,192.75364 C795.399629,189.920304 796.153562,187.14909 797.25231,184.50844 C798.27304,182.32671 800.55597,178.62702 803.36287,179.28016 C806.19245,179.93853 809.91488,184.01656 812.29541,185.72883 L812.29541,185.72883 Z" id="Path" fill="#3F3D56" fill-rule="nonzero"></path>
            <ellipse id="Oval" fill="#FFFFFF" fill-rule="nonzero" cx="318.95419" cy="242.06613" rx="41" ry="41.07457"></ellipse>
            <path d="M318.95419,193.99156 C291.892237,193.99156 269.95419,215.929607 269.95419,242.99156 C269.95419,270.053513 291.892237,291.99156 318.95419,291.99156 C346.016143,291.99156 367.95419,270.053513 367.95419,242.99156 C367.875073,215.962447 345.983303,194.070677 318.95419,193.99156 L318.95419,193.99156 Z M308.89506,269.11706 L283.78256,244.00453 L290.8263,236.96079 L308.91863,255.0531 L347.10563,216.8661 L354.14938,223.90985 L308.89505,269.11706 L308.89506,269.11706 Z" id="Shape" fill="#57B894" fill-rule="nonzero"></path>
        </g>
    </g>
</svg>