<svg height="607.18766" viewBox="0 0 799.70314 607.18766" width="799.70314" xmlns="http://www.w3.org/2000/svg"><path d="m.27492.36501h643.86161v412.35762h-643.86161z" fill="#e6e6e6"/><path d="m18.68599 52.08494h607.03946v336.24258h-607.03946z" fill="#fff"/><path d="m0 0h643.86161v27.3536h-643.86161z" fill="#4b59f7"/><circle cx="20.327" cy="13.98461" fill="#fff" r="5.06978"/><circle cx="39.57061" cy="13.98461" fill="#fff" r="5.06978"/><circle cx="58.81422" cy="13.98461" fill="#fff" r="5.06978"/><path d="m73.84385 86.97284h155.98054v266.46676h-155.98054z" fill="#e6e6e6"/><path d="m256.74961 86.97284h129.98379v73.34799h-129.98379z" fill="#4b59f7"/><path d="m256.74961 180.74686h129.98379v78.91873h-129.98379z" fill="#e6e6e6"/><path d="m256.74961 280.09161h129.98379v73.34799h-129.98379z" fill="#e6e6e6"/><path d="m414.58706 86.97284h155.98054v116.12476h-155.98054z" fill="#e6e6e6"/><path d="m414.58706 237.31485h155.98054v116.12476h-155.98054z" fill="#4b59f7"/><path d="m936.78726 353.0853c-10.28895-17.5356-30.64482-18.35283-30.64482-18.35283s-19.83563-2.55851-32.56006 24.14841c-11.86019 24.89305-28.22876 48.9278-2.63521 54.75508l4.62294-14.51317 2.863 15.59366a99.28429 99.28429 0 0 0 10.95053.18877c27.40862-.89257 53.5112.26114 52.67074-9.65934-1.1173-13.18788 4.63292-35.28783-5.26712-52.16058z" fill="#2f2e41" transform="translate(-200.14843 -146.40617)"/><path d="m839.21678 446.71189-9 23-45 42s-27 20-15 26 23-22 23-22l48-29 10-33z" fill="#ffb8b8" transform="translate(-200.14843 -146.40617)"/><path d="m654.068 555.306 9 23h13l-11-27z" fill="#ffb8b8"/><path d="m693.068 565.306 9 23h13l-11-27z" fill="#ffb8b8"/><path d="m892.21678 715.71189 17-4-22-89 7.30462-68.48066.19538-.01934s12.5-48.5 2.5-61.5-60-8-60-8-19 19-18 62 0 80 7 97 27 62 27 62l16-2-17-74-2.71808-64.32715c2.16314 25.77813 6.51709 74.65881 8.71808 78.32715 3 5 34 72 34 72z" fill="#2f2e41" transform="translate(-200.14843 -146.40617)"/><path d="m943.21678 467.71189 7 25 31 56s27 24 16 27-28-22-28-22l-35-49-9-36z" fill="#ffb8b8" transform="translate(-200.14843 -146.40617)"/><circle cx="707.06835" cy="225.30572" fill="#ffb8b8" r="25"/><g transform="translate(-200.14843 -146.40617)"><path d="m894.21678 384.71189-6 19-10 22 37-15s-2-16 0-20z" fill="#ffb8b8"/><path d="m937.21678 424.71189-23-19-26 11 1.01872-16.226-27.74116 8.85981-4.27756 1.36615-6 31s-4 3-8 20a146.503 146.503 0 0 1 -10 29s43-17 64 6c0 0 3-2 2-5s9-18 9-18 0 3 4-3 7-7 7-7z" fill="#4b59f7"/><path d="m863.21678 413.71189-4.3679-3.52126s-3.6321-1.47874-6.6321 3.52126-18 36-18 36l18 9z" fill="#4b59f7"/><path d="m923.21678 423.71189 14 1s8 4 8 10 2 38 2 38l-22 7-9-28z" fill="#4b59f7"/><path d="m860.327 721.21189-17 7s-20 1-17 11 33 3 33 3 27 1 27-6-4-15-8-15z" fill="#2f2e41"/><path d="m898.327 730.21189-17 7s-20 1-17 11 33 3 33 3 27 1 27-6-4-15-8-15z" fill="#2f2e41"/></g><path d="m732.09 204.989-20.111-10.626-27.771 4.347-5.746 25.597 14.303-.554 3.996-9.405v9.25l6.6-.256 3.83-14.972 2.394 15.937 23.463-.483z" fill="#2f2e41"/><path d="m797.72843 229.95254a135.01972 135.01972 0 1 0 7.65506 199.40281l165.61814 139.74775a12.44209 12.44209 0 1 0 16.04759-19.01834l-165.61814-139.74776a135.02731 135.02731 0 0 0 -23.70265-180.38446zm-10.67672 166.92767a101.15766 101.15766 0 1 1 -12.07656-142.54785 101.15764 101.15764 0 0 1 12.07656 142.54785z" fill="#3f3d56" transform="translate(-200.14843 -146.40617)"/><path d="m644.50378 408.95686a101.16313 101.16313 0 0 1 -17.16557-135.98894q-2.90123 2.92175-5.60938 6.1199a101.15766 101.15766 0 1 0 154.62445 130.47133q2.702-3.20223 5.089-6.559a101.163 101.163 0 0 1 -136.9385 5.95671z" opacity=".3" transform="translate(-200.14843 -146.40617)"/></svg>