<svg height="755.2279" viewBox="0 0 1076.06371 755.2279" width="1076.06371" xmlns="http://www.w3.org/2000/svg"><g transform="translate(-61.96814 -72.38605)"><path d="m926.11393 774.80937c-6.98452 26.59789-31.459 43.21966-31.459 43.21966s-13.15033-26.50193-6.16581-53.09982 31.459-43.21966 31.459-43.21966 13.15033 26.50193 6.16581 53.09982z" fill="#3f3d56"/><path d="m915.52 769.18266c-19.56251 19.32716-21.75117 48.83128-21.75117 48.83128s29.52845-1.83141 49.091-21.15858 21.75116-48.83129 21.75116-48.83129-29.52851 1.83142-49.09099 21.15859z" fill="#4b59f7"/><path d="m206.70221 674.19438h36.8414l90.78774-35.52564s64.47245-26.31528 59.20939 23.68376-14.47341 117.103-14.47341 117.103-28.94681-13.15764-44.736-9.21035-5.26306-80.26162-5.26306-80.26162-128.9449 61.84092-140.78678 53.94634-14.4734-63.15669-14.4734-63.15669z" fill="#2f2e41"/><path d="m206.70221 674.19438h36.8414l90.78774-35.52564s64.47245-26.31528 59.20939 23.68376-14.47341 117.103-14.47341 117.103-28.94681-13.15764-44.736-9.21035-5.26306-80.26162-5.26306-80.26162-128.9449 61.84092-140.78678 53.94634-14.4734-63.15669-14.4734-63.15669z" opacity=".1"/><path d="m264.74607 558.82036 44.58576 64.05921 103.94537 86.84043s96.0508 22.368 82.89315 38.15717-93.41926-15.78917-93.41926-15.78917-119.73455-86.84044-123.68184-93.41927-47.36751-68.41973-47.36751-68.41973z" fill="#a0616a"/><path d="m264.74607 558.82036 44.58576 64.05921 103.94537 86.84043s96.0508 22.368 82.89315 38.15717-93.41926-15.78917-93.41926-15.78917-119.73455-86.84044-123.68184-93.41927-47.36751-68.41973-47.36751-68.41973z" opacity=".1"/><path d="m238.28056 507.09232 28.94681 56.57786s-6.57882 27.63105-17.10494 30.26258-55.26209-34.20987-55.26209-34.20987z" fill="#d0cde1"/><path d="m238.28056 507.09232 28.94681 56.57786s-6.57882 27.63105-17.10494 30.26258-55.26209-34.20987-55.26209-34.20987z" opacity=".1"/><path d="m591.4193 644.90044 8.5507 35.27156a2.20311 2.20311 0 0 1 -.04279 1.19048l-38.78765 121.21126a2.20306 2.20306 0 0 1 -4.28722-.42269l-5.36581-47.21916a2.203 2.203 0 0 1 .09431-.93128l35.60276-109.26361a2.20306 2.20306 0 0 1 4.2357.16344z" fill="#2f2e41"/></g><path d="m526.306 575.493 7.894 30.263-34.21 110.524-7.894-34.21z" fill="#f2f2f2"/><path d="m415.90873 812.34963c1.31577 3.94729 136.83949-1.31577 138.15525-2.63153a28.56086 28.56086 0 0 0 2.89462-5.26306c1.2369-2.63153 2.36844-5.26306 2.36844-5.26306l-5.26304-42.60445-134.208-4.76306s-3.35527 36.10458-4.03949 52.63057c-.17087 4.17096-.17087 7.10508.09222 7.89459z" fill="#2f2e41" transform="translate(-61.96814 -72.38605)"/><path d="m474.991 689.965 2.631 36.841h-59.209v-36.841z" opacity=".1"/><path d="m398.677 701.806.353-.07-1.669 15.86h-32.894v-15.79z" opacity=".1"/><path d="m415.90873 812.34963c1.31577 3.94729 136.83949-1.31577 138.15525-2.63153a28.56086 28.56086 0 0 0 2.89462-5.26306h-141.14206c-.1709 4.17096-.1709 7.10508.09219 7.89459z" opacity=".1" transform="translate(-61.96814 -72.38605)"/><circle cx="196.04888" cy="357.07618" fill="#a0616a" r="59.20939"/><path d="m254.06973 482.0928s-19.73647 34.20987-23.68376 52.63057-59.20939-36.8414-59.20939-36.8414l-7.2367-19.07858s51.97268-24.34164 48.02539-44.07811 42.10446 47.36752 42.10446 47.36752z" fill="#a0616a" transform="translate(-61.96814 -72.38605)"/><path d="m264.59584 584.72241 53.94634 71.05127 128.9449 96.05079s93.41926 19.73647 72.367 34.20987-81.57738-13.15764-81.57738-13.15764-130.26064-69.73551-157.8917-98.68232-78.94585-77.63009-78.94585-77.63009z" fill="#a0616a" transform="translate(-61.96814 -72.38605)"/><path d="m192.22881 695.24661 15.78919 24.99952 94.2313-29.64581c20.67581-6.50474 43.34783-4.11124 61.68676 7.44229 16.44706 10.36164 26.97317 26.80869 3.28941 51.15033-47.36751 48.68328-78.94585 22.368-78.94585 22.368s-159.2075 74.99856-185.52278 38.15716-27.631-55.2621-27.631-55.2621 101.3138-63.15669 117.10297-59.20939z" fill="#2f2e41" transform="translate(-61.96814 -72.38605)"/><path d="m389.59345 782.08705s42.10445 27.63105-7.89459 40.78869-86.84044-5.26306-86.84044-5.26306-43.42022 0-43.42022-22.368 14.47341-24.99952 14.47341-24.99952l44.736 6.57882s53.94632-14.47339 78.94584 5.26307z" fill="#d0cde1" transform="translate(-61.96814 -72.38605)"/><path d="m306.58925 414.56777c4.03 1.79653 8.02621 3.92291 12.40755 4.4444s9.37055-1.00819 11.44376-4.903c1.11982-2.10373 1.24778-4.57826 1.3-6.96089.15849-7.22517-.36406-15.03591-4.94264-20.6274-2.9139-3.55854-7.16747-5.80183-10.18374-9.274-2.161-2.48761-3.59924-5.50284-5.14786-8.41141-5.866-11.01725-14.55128-21.60559-26.62195-24.78175-5.04041-1.32629-10.328-1.26157-15.53945-1.188l-30.39725.42884c-4.91906.0694-9.914.15005-14.623 1.57383-9.784 2.95823-16.90779 11.18591-23.43216 19.05427-4.88119 5.88668-9.7753 11.83425-13.43862 18.54685a65.07888 65.07888 0 0 0 -7.71423 31.88675 29.83261 29.83261 0 0 0 1.09276 8.43732 46.82177 46.82177 0 0 0 3.31627 7.28423c5.70049 11.19673 9.08523 25.18219 2.66543 35.98258 11.15187-4.55542 22.18591-10.52835 29.54232-20.0677 3.29093-4.26748 5.87181-9.26316 10.25758-12.39472s11.532-3.40321 14.34592 1.1928a12.85719 12.85719 0 0 1 1.4508 6.02242c.20551 3.44983.1999 7.03258 1.66258 10.16374s4.94686 5.65758 8.27337 4.72061c5.72869-1.61358 5.18009-10.406 9.59251-14.4 3.35094-3.03318 8.52074-2.45334 12.82574-3.83026 5.01582-1.60428 8.77937-5.94959 10.92379-10.75939 1.63-3.65594 1.60645-13.223 4.69084-15.20283 3.86798-2.48287 12.66429 1.46437 16.24968 3.06271z" fill="#2f2e41" transform="translate(-61.96814 -72.38605)"/><path d="m159.2397 472.56207a15.61579 15.61579 0 0 1 8.128.02069c8.44618 2.26753 27.38021 8.27035 31.43989 17.40462 5.26306 11.84188 23.68376 30.26258 23.68376 30.26258s24.99952 24.99952 19.73646 42.10446-24.99952 36.8414-24.99952 36.8414 5.26306 81.57738-21.05223 102.62961-36.8414 6.57882-36.8414 26.31528-81.57734 81.57739-97.36652 43.42023c0 0 7.89459-71.05128 5.26306-96.0508-2.59358-24.63898 1.20328-178.36477 92.0085-202.94807z" fill="#d0cde1" transform="translate(-61.96814 -72.38605)"/><path d="m201.43916 505.77655s80.26162 59.2094 65.78821 84.20892c0 0-48.68328 23.68375-59.20939 22.368s-51.31481-47.36751-61.84092-51.31481-15.78917-74.99857 55.2621-55.26211z" fill="#d0cde1" transform="translate(-61.96814 -72.38605)"/><circle cx="498.06371" cy="237.45791" fill="#f2f2f2" r="65"/><path d="m1096.8978 225.42666h-364.24868v-76.21944h364.24868zm-362.64406-1.60466h361.03944v-73.0102h-361.03944z" fill="#3f3d56" transform="translate(-61.96814 -72.38605)"/><path d="m645.80936 92.06506h362.64407v74.61482h-362.64407z" fill="#4b59f7"/><circle cx="416.56486" cy="15.24386" fill="#4b59f7" r="5.61624"/><circle cx="435.8203" cy="15.24386" fill="#4b59f7" r="5.61624"/><circle cx="455.07573" cy="15.24386" fill="#4b59f7" r="5.61624"/><path d="m1138.03186 512.05187h-675.54493v-439.66582h675.54493zm-673.94031-1.60462h672.33569v-436.45658h-672.33569z" fill="#3f3d56" transform="translate(-61.96814 -72.38605)"/><path d="m401.3211 24.33804h673.9403v1.60462h-673.9403z" fill="#3f3d56"/><path d="m480.13775 91.64149a6.41848 6.41848 0 1 1 6.41848-6.41848 6.42592 6.42592 0 0 1 -6.41848 6.41848zm0-11.23234a4.81386 4.81386 0 1 0 4.81386 4.81386 4.81945 4.81945 0 0 0 -4.81386-4.81386z" fill="#3f3d56" transform="translate(-61.96814 -72.38605)"/><path d="m499.39319 91.64149a6.41848 6.41848 0 1 1 6.41848-6.41848 6.42592 6.42592 0 0 1 -6.41848 6.41848zm0-11.23234a4.81386 4.81386 0 1 0 4.81386 4.81386 4.81945 4.81945 0 0 0 -4.81386-4.81386z" fill="#3f3d56" transform="translate(-61.96814 -72.38605)"/><path d="m518.64863 91.64149a6.41848 6.41848 0 1 1 6.41847-6.41849 6.42593 6.42593 0 0 1 -6.41847 6.41849zm0-11.23234a4.81386 4.81386 0 1 0 4.81385 4.81386 4.81946 4.81946 0 0 0 -4.81385-4.81386z" fill="#3f3d56" transform="translate(-61.96814 -72.38605)"/><path d="m612.10922 25.14035h1.60462v414.34565h-1.60462z" fill="#3f3d56"/><path d="m688.73293 228.85889h117.93955v16.0462h-117.93955z" fill="#f2f2f2"/><path d="m874.06652 228.85889h117.93955v16.0462h-117.93955z" fill="#f2f2f2"/><path d="m875.86143 310.07035h-119.54417v-17.65082h119.54417zm-117.93955-1.60462h116.33493v-14.44158h-116.33493z" fill="#3f3d56" transform="translate(-61.96814 -72.38605)"/><path d="m688.73293 353.21693h117.93955v16.0462h-117.93955z" fill="#f2f2f2"/><path d="m875.86143 434.42838h-119.54417v-17.65081h119.54417zm-117.93955-1.60462h116.33493v-14.44157h-116.33493z" fill="#3f3d56" transform="translate(-61.96814 -72.38605)"/><path d="m689.13409 289.43329h303.27314v16.0462h-303.27314z" fill="#f2f2f2"/><path d="m1061.59617 372.24937h-304.87776v-17.65082h304.87776zm-303.27317-1.60462h301.66852v-14.44158h-301.66852z" fill="#3f3d56" transform="translate(-61.96814 -72.38605)"/><path d="m1061.195 310.07035h-119.54416v-17.65082h119.54416zm-117.93955-1.60462h116.33493v-14.44158h-116.33492z" fill="#3f3d56" transform="translate(-61.96814 -72.38605)"/><path d="m571.03186 357.844a66 66 0 1 1 66-66 66.07468 66.07468 0 0 1 -66 66zm0-130a64 64 0 1 0 64 64 64.0727 64.0727 0 0 0 -64-64z" fill="#3f3d56" transform="translate(-61.96814 -72.38605)"/><path d="m748.06371 744.45791h283v2h-283z" fill="#3f3d56"/></svg>